<?xml version="1.0" encoding="utf-8"?>
<!-- Generator: Adobe Illustrator 21.0.0, SVG Export Plug-In . SVG Version: 6.00 Build 0)  -->
<svg version="1.1" xmlns="http://www.w3.org/2000/svg" xmlns:xlink="http://www.w3.org/1999/xlink" x="0px" y="0px"
	 viewBox="0 0 900 1765" style="enable-background:new 0 0 900 1765;" xml:space="preserve">
<style type="text/css">
	.st0{fill:#C7C8CA;stroke:#000000;stroke-width:10;stroke-miterlimit:10;}
	.st1{fill:#1A4663;stroke:#000000;stroke-width:15;stroke-miterlimit:10;}
	.st2{fill:#919693;stroke:#000000;stroke-width:3;stroke-miterlimit:10;}
	.st3{fill:#DED5B3;stroke:#000000;stroke-miterlimit:10;}
	.st4{fill:#CC092F;stroke:#000000;stroke-width:10;stroke-miterlimit:10;}
	.st5{stroke:#000000;stroke-width:3;stroke-miterlimit:10;}
	.st6{fill:#A11111;stroke:#000000;stroke-width:3;stroke-miterlimit:10;}
	.st7{fill:#DED5B3;stroke:#000000;stroke-width:3;stroke-miterlimit:10;}
	.st8{fill:#1A4663;stroke:#000000;stroke-width:3;stroke-miterlimit:10;}
	.st9{fill:#003050;stroke:#000000;stroke-width:3;stroke-miterlimit:10;}
	.st10{fill:#CC092F;stroke:#000000;stroke-width:3;stroke-miterlimit:10;}
	.st11{fill:#D1C29A;stroke:#000000;stroke-width:3;stroke-miterlimit:10;}
	.st12{fill:#FCFCEA;stroke:#000000;stroke-width:3;stroke-miterlimit:10;}
	.st13{fill:#90C6EF;stroke:#000000;stroke-width:3;stroke-miterlimit:10;}
	.st14{fill:#C9A758;stroke:#000000;stroke-width:3;stroke-miterlimit:10;}
	.st15{fill:#CC092F;stroke:#000000;stroke-width:7;stroke-miterlimit:10;}
	.st16{fill:#919693;stroke:#FFFFFF;stroke-width:5;stroke-miterlimit:10;}
	.st17{fill:#FFFFFF;stroke:#919693;stroke-width:10;stroke-miterlimit:10;}
	.st18{fill:#CC092F;stroke:#919693;stroke-width:7;stroke-miterlimit:10;}
	.st19{fill:none;stroke:#FFFFFF;stroke-width:15;stroke-miterlimit:10;}
	.st20{fill:#1A4663;stroke:#919693;stroke-width:10;stroke-miterlimit:10;}
	.st21{fill:#FFFFFF;stroke:#919693;stroke-width:3;stroke-miterlimit:10;}
	.st22{fill:#DA1617;stroke:#EEE5E9;stroke-width:5;stroke-miterlimit:10;}
	.st23{fill:#EEE5E9;}
	.st24{fill:#08415C;}
	.st25{fill:#FFFFFF;stroke:#919693;stroke-width:1.5;stroke-linejoin:round;stroke-miterlimit:10;}
	.st26{fill:none;stroke:#919693;stroke-width:6;stroke-miterlimit:10;}
	.st27{fill:#919693;stroke:#919693;stroke-width:3;stroke-miterlimit:10;}
	.st28{fill:#DA1617;}
	.st29{fill:#6B818C;}
	.st30{fill:#F1BF98;}
</style>
<g id="Layer_1">
	<path class="st0" d="M271.8,500.4c0,0,19.2,29.9,32,24.1c12.8-5.8,68.5-63.8,59.2-74.3s-19.6-17.5-31.9-14.6
		C327.1,441.2,299.5,483.1,271.8,500.4z"/>
	<circle class="st1" cx="192.2" cy="369.7" r="155.7"/>
	<path class="st2" d="M342.2,373.1c0,12.2-1.4,24-4.2,35.3c0,0.1-0.1,0.2-0.1,0.3c-16,65.9-75.4,114.9-146.3,114.9
		s-130.3-49-146.3-114.9c-2.8-11.4-4.2-23.4-4.2-35.6c0-25.5,2.1-34.1,11.7-56.8c0.2-0.4,0.7-1.7,0.9-1.4c0,0,0,0,0,0
		c0.2,0.4-0.1-1.2,0.1-1.5c0.9-1.7,3.4-1.3,5.5-1.3h15.2c3.2,0,5.9,2.6,5.9,5.9v24.2c0-2.5,2.1-4.6,4.6-4.6h17.2
		c2.5,0,4.6,2.1,4.6,4.6v-2.7c0-2.9,2.3-5.2,5.2-5.2h16.5c2.6,0,4.7,2.1,4.7,4.7v-41.4c0-3.5,2.9-6.4,6.4-6.4h14.1
		c3.3,0,5.9,2.6,5.9,5.9v-21c0-3.8,3.1-6.9,6.9-6.9h12.5c3.8,0,6.9,3.1,6.9,6.9v41.6c0-3,2.4-5.4,5.4-5.4h15.7c3,0,5.4,2.4,5.4,5.4
		v-6.3c0-3.3,2.7-6.1,6.1-6.1H233c3.3,0,6.1,2.7,6.1,6.1v6.3c0-3,2.4-5.4,5.4-5.4h15.2c3.2,0,5.9,2.6,5.9,5.9v15.4
		c0-2.7,2.2-4.9,4.9-4.9H287c2.7,0,4.9,2.2,4.9,4.9v-46.7c0-3.7,3-6.7,6.7-6.7h11.1c0.2,0,0.3,0.1,0.4,0.2c2.9,3.7,5.6,7.5,8.1,11.4
		c0.1,0.1,0.1,0.2,0.1,0.3v15.8c0-3.1,2.5-5.6,5.6-5.6h0.2c0.2,0,0.4,0.1,0.4,0.3C335.9,323.4,342.2,347.5,342.2,373.1z"/>
	<polygon class="st3" points="103.6,283.8 102.1,287.4 102.7,291.3 99.1,289.8 95.2,290.5 96.7,286.8 96.1,282.9 99.7,284.4 	"/>
	<polygon class="st3" points="159,255.7 156,258.4 155,262.3 152.3,259.3 148.5,258.3 151.4,255.6 152.4,251.8 155.1,254.7 	"/>
	<path class="st4" d="M362.9,450.3l110.5,110.5c7.7,7.7,19.5,11.3,10.2,22.9l-44,29.5c-5.7,3.2-12.7,2.8-19.2-3.4l-123.6-85.3"/>
	<polygon class="st3" points="239.2,273.2 239,277.1 241,280.6 237,280.4 233.6,282.4 233.8,278.4 231.8,275 235.8,275.2 	"/>
	<polygon class="st3" points="279.9,290.7 281.7,294.3 285,296.4 281.5,298.1 279.4,301.5 277.6,297.9 274.3,295.8 277.8,294.1 	"/>
	<line class="st5" x1="702" y1="-21" x2="702" y2="200"/>
	<line class="st5" x1="42" y1="200" x2="42" y2="-21"/>
	<rect x="235.8" y="10.4" class="st6" width="75" height="74.3"/>
	<rect x="152" y="94.6" class="st2" width="75" height="74.3"/>
	<rect x="234.5" y="94.6" class="st7" width="75" height="74.3"/>
	<rect x="484.5" y="94.6" class="st8" width="198.7" height="74.3"/>
	<rect x="70.3" y="94.6" class="st9" width="75" height="74.3"/>
	<rect x="319.5" y="94.6" class="st10" width="155" height="74.3"/>
	<rect x="152" y="10.4" class="st11" width="75" height="74.3"/>
	<rect x="70.3" y="10.4" class="st12" width="75" height="74.3"/>
	<rect x="484.5" y="10.4" class="st13" width="198.7" height="74.3"/>
	<rect x="319.5" y="10.4" class="st14" width="155" height="74.3"/>
	<path class="st15" d="M727.5,608.7L596.6,386c-9.4-14.6-12.2-32.4-7.6-49.2c14.4-52.1,55.1-106.2,142.4-106.2
		c104.1,0,125.1,76.1,129,112.9c1.3,12.4-1.3,20.2-11.2,45.8L727.5,608.7z"/>
	<path class="st16" d="M701.2,445.2l-6.4-2.9c-5-2.2-7.2-8.1-5-13.1l23.8-53.1c2.2-5,8.1-7.2,13.1-5l6.4,2.9c5,2.2,7.2,8.1,5,13.1
		l-23.8,53.1C712,445.2,706.2,447.4,701.2,445.2z"/>
	<circle class="st17" cx="735.9" cy="348.1" r="52.5"/>
	<path class="st18" d="M169.7,907L91,773.3c-5.7-8.7-7.4-19.5-4.6-29.5c8.7-31.3,33.1-63.8,85.5-63.8c62.5,0,75.1,45.7,77.5,67.8
		c0.8,7.4-0.8,12.1-6.7,27.5L169.7,907z"/>
	<circle class="st19" cx="175" cy="750.5" r="33.8"/>
	<path class="st16" d="M153.9,808.8l-3.8-1.7c-3-1.3-4.3-4.9-3-7.9l14.3-31.9c1.3-3,4.9-4.3,7.9-3l3.8,1.7c3,1.3,4.3,4.9,3,7.9
		l-14.3,31.9C160.4,808.8,156.9,810.2,153.9,808.8z"/>
	<circle class="st20" cx="174.7" cy="750.5" r="31.5"/>
	<path class="st21" d="M204,751.3c0,2.4-0.3,4.7-0.8,6.9c0,0,0,0,0,0.1c-3.1,12.9-14.7,22.4-28.5,22.4c-13.8,0-25.4-9.5-28.5-22.4
		c-0.5-2.2-0.8-4.6-0.8-6.9c0-5,0.4-6.6,2.3-11.1c0-0.1,0.1-0.3,0.2-0.3c0,0,0,0,0,0c0,0.1,0-0.2,0-0.3c0.2-0.3,0.7-0.3,1.1-0.3h3
		c0.6,0,1.1,0.5,1.1,1.1v4.7c0-0.5,0.4-0.9,0.9-0.9h3.4c0.5,0,0.9,0.4,0.9,0.9v-0.5c0-0.6,0.5-1,1-1h3.2c0.5,0,0.9,0.4,0.9,0.9v-8.1
		c0-0.7,0.6-1.3,1.3-1.3h2.7c0.6,0,1.2,0.5,1.2,1.2v-4.1c0-0.7,0.6-1.4,1.4-1.4h2.4c0.7,0,1.4,0.6,1.4,1.4v8.1c0-0.6,0.5-1,1-1h3.1
		c0.6,0,1,0.5,1,1v-1.2c0-0.7,0.5-1.2,1.2-1.2h2.8c0.7,0,1.2,0.5,1.2,1.2v1.2c0-0.6,0.5-1,1-1h3c0.6,0,1.1,0.5,1.1,1.1v3
		c0-0.5,0.4-1,1-1h3.2c0.5,0,1,0.4,1,1v-9.1c0-0.7,0.6-1.3,1.3-1.3h2.2c0,0,0.1,0,0.1,0c0.6,0.7,1.1,1.5,1.6,2.2c0,0,0,0,0,0.1v3.1
		c0-0.6,0.5-1.1,1.1-1.1h0c0,0,0.1,0,0.1,0.1C202.7,741.6,204,746.3,204,751.3z"/>
	<g>
		<path class="st22" d="M734.4,794.8L647.3,930c-3.2,4.9-10.4,4.9-13.6,0l-87.2-135.2c-2.8-4.4-4.2-9.6-3.8-14.9
			c1.9-23.4,14.6-86.4,97.7-86.4s95.8,63,97.7,86.4C738.6,785.2,737.3,790.4,734.4,794.8z"/>
		<circle class="st23" cx="645" cy="779" r="43"/>
		<path class="st23" d="M610.2,803.7l-20.4,18.6c-3.8,3.5-3.9,9.4-0.3,13l0,0c3.5,3.5,9.1,3.5,12.6,0.1l21.1-20.3L610.2,803.7z"/>
		<circle class="st24" cx="644.7" cy="779.3" r="37.3"/>
		<path class="st25" d="M607.8,778.8h7.5v6.6h9.1v-14.1h8.3v14.1v-20.7l4.6-4.6l3.7,3.7v21.6h3.3v-11.6h4.1v11.6v-16.6h8.3v16.6v-10
			v-15.8h5.8v25.7v-16.6h8.3v16.6v-10.8h11.4c0,0-0.3,41.5-34.5,41.5C613.6,816.2,607.8,778.8,607.8,778.8z"/>
		<circle class="st26" cx="645.2" cy="778.8" r="37.3"/>
		<path class="st27" d="M617,802.8l-24.3,24.3c-0.7,0.7-1,1.8-0.6,2.7l0.6,1.7c0.6,1.9,3.1,2.4,4.4,1l23.2-24.5L617,802.8z"/>
	</g>
</g>
<g id="Level_1">
	<rect x="725.7" y="984" class="st24" width="31.9" height="112"/>
	<rect x="759.8" y="984" class="st28" width="31.9" height="112"/>
	<rect x="793.9" y="984" class="st29" width="31.9" height="112"/>
	<rect x="828" y="984" class="st30" width="31.9" height="112"/>
	<rect x="862.1" y="984" class="st23" width="31.9" height="112"/>
</g>
</svg>
