<?xml version="1.0" encoding="utf-8"?>
<!-- Generator: Adobe Illustrator 21.0.0, SVG Export Plug-In . SVG Version: 6.00 Build 0)  -->
<svg version="1.1" id="Layer_1" xmlns="http://www.w3.org/2000/svg" xmlns:xlink="http://www.w3.org/1999/xlink" x="0px" y="0px"
	 viewBox="0 0 900 900" style="enable-background:new 0 0 900 900;" xml:space="preserve">
<style type="text/css">
	.st0{fill:#6B818C;}
	.st1{opacity:0.52;fill:#383838;enable-background:new    ;}
	.st2{fill:#DA1617;stroke:#EEE5E9;stroke-width:10;stroke-miterlimit:10;}
	.st3{fill:#EEE5E9;stroke:#919693;stroke-width:3;stroke-miterlimit:10;}
	.st4{fill:#08415C;}
	.st5{fill:#FFFFFF;stroke:#919693;stroke-width:3;stroke-linejoin:round;stroke-miterlimit:10;}
	.st6{fill:none;stroke:#919693;stroke-width:12;stroke-miterlimit:10;}
	.st7{fill:#919693;stroke:#919693;stroke-width:3;stroke-miterlimit:10;}
	.st8{opacity:0.2;fill:#FFFFFF;}
</style>
<circle class="st0" cx="450" cy="450" r="363.2"/>
<path class="st1" d="M685.3,424.5L481.4,740.8c-7.4,11.5-24.3,11.5-31.7,0L245.8,424.5c-6.7-10.3-9.8-22.6-8.8-34.8
	c4.4-54.7,34.2-202.2,228.6-202.2S689.8,335,694.1,389.7C695.1,401.9,692,414.2,685.3,424.5z"/>
<path class="st2" d="M669.8,406L465.9,722.3c-7.4,11.5-24.3,11.5-31.7,0L230.2,406c-6.7-10.3-9.8-22.6-8.8-34.8
	C225.8,316.5,255.6,169,450,169s224.2,147.5,228.6,202.2C679.6,383.5,676.4,395.7,669.8,406z"/>
<path class="st3" d="M561.1,367.7c0.8,56.2-44.5,102-100.6,102c-19.2,0-42.1-5.4-55.4-14.7L357,501.3c-6.1,3.9-11.3,4.9-16.6,4.9
	c0,0-8.8-3.1-12.9-7.2c-10.1-10.1,1.8-26.7,3.7-28.4l47.3-43.2c-11.7-16.5-18.6-36.6-18.6-58.4c0-56,45.8-101.4,102-100.6
	C516.1,269.3,560.4,313.5,561.1,367.7z"/>
<circle class="st4" cx="459.9" cy="369.7" r="87.4"/>
<path class="st5" d="M373.5,368.7H391v15.5h21.4v-33h19.4v33v-48.5l10.7-10.7l8.7,8.7v50.5h7.8V357h9.7v27.2v-38.8h19.4v38.8V361
	v-36.9h13.6v60.2v-38.8h19.4v38.8V359h26.7c0,0-0.7,97.1-80.7,97.1S373.5,368.7,373.5,368.7z"/>
<circle class="st6" cx="460.9" cy="368.7" r="87.4"/>
<path class="st7" d="M395.1,424.8l-56.8,56.8c-1.7,1.7-2.2,4.1-1.5,6.3l1.4,4.1c1.5,4.4,7.1,5.7,10.4,2.3l54.2-57.3L395.1,424.8z"/>
<path class="st8" d="M423.9,535.2l-183.8,15.6c-32,2.7-58.3-25-53.9-56.9l35.2-254.2c6.6-47.5,47.2-82.8,95.1-82.8l263.8,0
	c38.6,0,62.7,41.8,43.4,75.2L463.1,510.4C454.9,524.6,440.3,533.9,423.9,535.2z"/>
<path class="st0" d="M656,268.5c0,0-59.7-104.3-196.1-104.3c-119.7,0-210.2,41.8-238.7,176.5c-5.3,25.2-9.1,56.2,12.6,79.9l106,167
	L193.2,706.8c0,0-44.6-41.4-75.7-111.9c-12-27.2-23-61.2-27.3-98.7c-12.1-107.7,17.6-243.8,129.6-327.1c0,0,31.1-31.4,92.6-54.9
	c95.5-36.6,253-55.8,394.4,79.1"/>
</svg>
