<?xml version="1.0" encoding="utf-8"?>
<!-- Generator: Adobe Illustrator 21.0.0, SVG Export Plug-In . SVG Version: 6.00 Build 0)  -->
<svg version="1.1" id="Layer_1" xmlns="http://www.w3.org/2000/svg" xmlns:xlink="http://www.w3.org/1999/xlink" x="0px" y="0px"
	 viewBox="0 0 900 900" style="enable-background:new 0 0 900 900;" xml:space="preserve">
<style type="text/css">
	.st0{fill:#002D4A;}
	.st1{fill:#B40000;}
	.st2{fill:#808080;}
	.st3{font-family:'MyriadPro-Regular';}
	.st4{font-size:50px;}
</style>
<g>
	<path class="st0" d="M185.3,282H30.7c-10.3,0-18.7-8.4-18.7-18.7V108.7C12,98.4,20.4,90,30.7,90h154.6c10.3,0,18.7,8.4,18.7,18.7
		v154.6C204,273.6,195.6,282,185.3,282z"/>
</g>
<g>
	<path class="st1" d="M653,282H248c-16,0-29-13.1-29-29V119c0-16,13.1-29,29-29h405c16,0,29,13.1,29,29v134
		C682,268.9,668.9,282,653,282z"/>
</g>
<g>
	<path class="st2" d="M871.3,282H716.7c-10.3,0-18.7-8.4-18.7-18.7V108.7c0-10.3,8.4-18.7,18.7-18.7h154.6
		c10.3,0,18.7,8.4,18.7,18.7v154.6C890,273.6,881.6,282,871.3,282z"/>
</g>
<text transform="matrix(1 0 0 1 26.3335 69.623)" class="st3 st4">Color Pallette</text>
<text transform="matrix(1 0 0 1 26.3335 389.623)" class="st3 st4">Type Pallette</text>
<text transform="matrix(1 0 0 1 55.1304 499.3477)"><tspan x="0" y="0" class="st3 st4">Google Fonts: </tspan><tspan x="0" y="120" class="st3 st4">Josefin Slab, Fredricka the Great</tspan></text>
</svg>
